#tb 0: 1/25
0,          2,          2,        1,   152064, 0x9744ac59
0,          4,          4,        1,   152064, 0xe1c69d97
0,          6,          6,        1,   152064, 0x9ae85f93
0,          8,          8,        1,   152064, 0x452966a3
0,         10,         10,        1,   152064, 0xe8192823
0,         12,         12,        1,   152064, 0x58b764eb
0,         14,         14,        1,   152064, 0x51b686b1
0,         16,         16,        1,   152064, 0x4bca5822
0,         18,         18,        1,   152064, 0x29abc41c
0,         20,         20,        1,   152064, 0x850ec94f
0,         22,         22,        1,   152064, 0xac2c34f8
0,         24,         24,        1,   152064, 0x080c6e67
0,         26,         26,        1,   152064, 0x5e4e14d2
0,         28,         28,        1,   152064, 0x978b054c
0,         30,         30,        1,   152064, 0x861d8c3c
0,         32,         32,        1,   152064, 0xe0818918
0,         34,         34,        1,   152064, 0x8b834511
0,         36,         36,        1,   152064, 0x223f567c
0,         38,         38,        1,   152064, 0x6d61298d
0,         40,         40,        1,   152064, 0xfe30826e
0,         42,         42,        1,   152064, 0x4bad4f98
0,         44,         44,        1,   152064, 0x69d5fdca
0,         46,         46,        1,   152064, 0xe45bba1b
0,         48,         48,        1,   152064, 0xa6d81298
0,         50,         50,        1,   152064, 0x7f3f2c91
0,         52,         52,        1,   152064, 0x658754b9
0,         54,         54,        1,   152064, 0x2c6d3eba
0,         56,         56,        1,   152064, 0x4500600c
0,         58,         58,        1,   152064, 0xa745f74b
0,         60,         60,        1,   152064, 0x2bf21fca
0,         62,         62,        1,   152064, 0x08b8bdb3
0,         64,         64,        1,   152064, 0x5a9d0a8b
0,         66,         66,        1,   152064, 0x3a57d523
0,         68,         68,        1,   152064, 0x3606826e
0,         70,         70,        1,   152064, 0x3b91a8fb
0,         72,         72,        1,   152064, 0x37c28959
0,         74,         74,        1,   152064, 0xb51d1e75
0,         76,         76,        1,   152064, 0x13be3f58
0,         78,         78,        1,   152064, 0x0ed0e7cf
0,         80,         80,        1,   152064, 0x298560d4
0,         82,         82,        1,   152064, 0x62b68373
0,         84,         84,        1,   152064, 0xf8bb4520
0,         86,         86,        1,   152064, 0x90dfd6af
0,         88,         88,        1,   152064, 0xf4770d20
0,         90,         90,        1,   152064, 0x0d9549a0
0,         92,         92,        1,   152064, 0x004eccb1
0,         94,         94,        1,   152064, 0x3146d46b
0,         96,         96,        1,   152064, 0x078d1808
0,         98,         98,        1,   152064, 0x5d8d60cd
0,        100,        100,        1,   152064, 0x8ff52dd8
0,        102,        102,        1,   152064, 0x5aa3ccf7
0,        104,        104,        1,   152064, 0x5bec6c39
0,        106,        106,        1,   152064, 0xd44cae9d
0,        108,        108,        1,   152064, 0xa1b0a151
0,        110,        110,        1,   152064, 0xe3be7bb2
0,        112,        112,        1,   152064, 0x50096775
0,        114,        114,        1,   152064, 0xdffff851
0,        116,        116,        1,   152064, 0x1d7250eb
0,        118,        118,        1,   152064, 0x69663ca7
0,        120,        120,        1,   152064, 0x62f77fc7
0,        122,        122,        1,   152064, 0xbab8f471
0,        124,        124,        1,   152064, 0x6af31785
0,        126,        126,        1,   152064, 0xcbb2a9aa
0,        128,        128,        1,   152064, 0xc57c32b9
0,        130,        130,        1,   152064, 0xecbe2ce0
0,        132,        132,        1,   152064, 0x2fbebf81
0,        134,        134,        1,   152064, 0xa168af68
0,        136,        136,        1,   152064, 0x1e5631ac
0,        138,        138,        1,   152064, 0xe69fc927
0,        140,        140,        1,   152064, 0x8e5c81d8
0,        142,        142,        1,   152064, 0x42402010
0,        144,        144,        1,   152064, 0xd7267482
0,        146,        146,        1,   152064, 0x64b280df
0,        148,        148,        1,   152064, 0xc4cbafcc
0,        150,        150,        1,   152064, 0xcf2f1e8b
0,        152,        152,        1,   152064, 0x4d6fdb3f
0,        154,        154,        1,   152064, 0xf22d6fed
0,        156,        156,        1,   152064, 0x625b167c
0,        158,        158,        1,   152064, 0x41348089
0,        160,        160,        1,   152064, 0x6db2779b
0,        162,        162,        1,   152064, 0xe87030a8
0,        164,        164,        1,   152064, 0x91b29cdd
0,        166,        166,        1,   152064, 0xe824f242
0,        168,        168,        1,   152064, 0xac995380
0,        170,        170,        1,   152064, 0x7efe361b
0,        172,        172,        1,   152064, 0xe10c0c26
0,        174,        174,        1,   152064, 0x93108260
0,        176,        176,        1,   152064, 0xbf4caed7
0,        178,        178,        1,   152064, 0xb6a4d826
0,        180,        180,        1,   152064, 0x78beea4e
0,        182,        182,        1,   152064, 0xdf612df9
0,        184,        184,        1,   152064, 0xa9ef2830
0,        186,        186,        1,   152064, 0x06448895
0,        188,        188,        1,   152064, 0x332eb6d5
0,        190,        190,        1,   152064, 0x935ba2c5
0,        192,        192,        1,   152064, 0x62a22656
0,        194,        194,        1,   152064, 0x06a670a7
0,        196,        196,        1,   152064, 0xf60b1af0
0,        198,        198,        1,   152064, 0x85177c10
0,        199,        199,        1,   152064, 0x5e4e5c4b
